<svg xmlns="http://www.w3.org/2000/svg" data-name="Layer 1" viewBox="0 0 46 46"><defs><clipPath id="a"><rect width="34" height="34" x="6" y="6" fill="none"/></clipPath></defs><g clip-path="url(#a)"><path d="M36,13V37a3,3,0,0,1-3,3H21V38H33a1,1,0,0,0,1-1V13Z"/><path d="M36,9v2H34V9a1,1,0,0,0-1-1H13a1,1,0,0,0-1,1V37a1,1,0,0,0,1,1h2v2H13a3,3,0,0,1-3-3V9a3,3,0,0,1,3-3H33A3,3,0,0,1,36,9Z"/><rect width="7" height="2" x="23" y="15"/><polygon points="18.61 17.42 15.55 15.89 16.45 14.11 18.06 14.91 20.22 12.21 21.78 13.46 18.61 17.42"/><rect width="7" height="2" x="23" y="23"/><polygon points="18.61 25.42 15.55 23.89 16.45 22.11 18.06 22.91 20.22 20.21 21.78 21.46 18.61 25.42"/><rect width="2" height="2" x="17" y="38"/></g></svg>