<svg xmlns="http://www.w3.org/2000/svg" enable-background="new 0 0 1024 1024" viewBox="0 0 1024 1024"><path d="M388.5 427.5c-37.4 0-74.9 0-112.3 0-53.8 0-107.6 0-161.3 0-5.7 0-11.4 0-17 0-.8 0-1.5 0-2.3 0-.5 0-.9 0-1.4 0-2.3-.2-1.9-.1 1.2.3-.2.2-2.9-.6-3.3-.7-.4-.1-3.2-.7-3.2-1 .8.3 1.6.7 2.3 1-.8-.4-1.6-.8-2.3-1.2-.4-.2-3.3-1.7-3.3-2.1.7.5 1.3 1 2 1.5-.7-.6-1.3-1.2-1.9-1.8.1.1-1.8-1.8-1.8-1.9 1.7 2.4 2 2.7.7.9-.5-.7-1-1.5-1.4-2.2-.2-.4-.4-.8-.6-1.2-.9-2-.8-1.6.4 1.2-.3 0-1.1-3.5-1.2-3.8 0 .2-.7-2.6-.5-2.7.1.9.3 1.7.4 2.6-.1-.9-.1-1.9-.1-2.8 0-.2 0-.4 0-.6 0-1.5 0-3.1 0-4.6 0-7.2 0-14.3 0-21.5 0-55.3 0-110.7 0-166 0-24.7 0-49.4 0-74.1 0-7 0-14 0-21 0-1.5 0-3.1 0-4.6 0-.2 0-.4 0-.5 0-.5 0-.9 0-1.4.2-1.8.1-1.8-.1-.1-.1.4-.1.9-.2 1.3.1-.9.3-1.8.5-2.7.1-.4.9-3.8 1.2-3.8-1.2 2.7-1.3 3.1-.4 1.2.4-.8.8-1.5 1.3-2.3.2-.4.5-.7.7-1.1 1-1.4 1-1.4 0-.1-.3.3-.5.7-.8 1 .6-.7 1.2-1.3 1.8-1.9.3-.3.6-.6.9-.9 1.6-1.4 1.3-1.2-1 .6 0-.4 2.9-1.9 3.3-2.1.4-.2.8-.4 1.2-.6 2-.9 1.6-.8-1.2.4.6 0 1.8-.6 2.5-.8.4-.1 3.8-1.2 4-.9-3.1.4-3.5.5-1.2.3.5 0 .9 0 1.4 0 .8 0 1.7 0 2.5 0 5.8 0 11.6 0 17.4 0 23.7 0 47.3 0 71 0 56.4 0 112.7 0 169.1 0 11 0 22.1-.2 33.1 0 .5 0 .9 0 1.4 0 2.3.2 1.9.1-1.2-.3.2-.3 3.6.8 4 .9.4.1.9.3 1.3.4 2 .8 1.7.6-1.1-.5.2-.2 2.6 1.4 2.9 1.5.4.2 2.7 1.4 2.7 1.8-.7-.5-1.3-1-2-1.5.7.6 1.3 1.2 1.9 1.8.3.3.6.6.9.9 1.4 1.6 1.2 1.3-.6-1 .7 0 2.4 3.9 2.8 4.5 1.7 2.7-.8-1.2-.4-1.2.3 0 1.1 3.5 1.2 3.8.1.4.2.9.3 1.3.4 2.2.3 1.8-.1-1.3.1 0 .1 2.8.1 2.8 0 .2 0 .5 0 .7 0 4.5 0 9.1 0 13.6 0 52 0 104 0 156 0 40.7.5 81.4 0 122.1 0 .2 0 .4 0 .5 0 .5 0 .9 0 1.4-.2 2.3-.1 1.9.3-1.2.3.2-.8 3.6-.9 4-.1.5-1.8 4.4-.4 1.4 1.4-3.1-.5.8-.7 1.2-.2.4-1.7 3.3-2.1 3.3.5-.7 1-1.3 1.5-2-.6.7-1.2 1.3-1.8 1.9-.3.3-.6.6-.9.9-1.6 1.4-1.3 1.2 1-.6 0 .2-1.8 1.3-2.2 1.5-.3.2-3.3 2.1-3.5 1.9.8-.3 1.6-.7 2.3-1-.8.3-1.7.6-2.5.8-.4.1-3.8 1.2-4 .9.9-.1 1.7-.3 2.6-.4C390.4 427.5 389.5 427.5 388.5 427.5c-10.5.2-20.5 9-20 20 .5 10.7 8.8 20.2 20 20 29.8-.6 53.5-24.2 54-54 .1-3.4 0-6.7 0-10.1 0-21.2 0-42.3 0-63.5 0-58.9 0-117.7 0-176.6 0-14.1.2-28.2 0-42.3-.3-23.5-14.6-43.7-36.7-51.6-7.6-2.7-15.6-2.9-23.5-2.9-49.1 0-98.2 0-147.3 0-45.7 0-91.5 0-137.2 0-15.9 0-31.6 5.5-42.3 17.7-9.8 11.1-14 24.6-14 39.2 0 17.1 0 34.2 0 51.3 0 59.3 0 118.6 0 177.9 0 18.6 0 37.2 0 55.8 0 10.3 1.3 20.1 5.9 29.5 9 18.5 28.7 29.3 48.9 29.5 43.2.3 86.5 0 129.7 0 51.2 0 102.4 0 153.5 0 3 0 6 0 8.9 0 10.5 0 20.5-9.2 20-20C408 436.7 399.7 427.5 388.5 427.5zM388.5 556.5c-38.9 0-77.8 0-116.7 0-53.8 0-107.6 0-161.4 0-4.7 0-9.4 0-14.1 0-23.2.2-43 14-51.4 35.4-5.4 13.9-3.4 31.8-3.4 46.5 0 56.8 0 113.6 0 170.5 0 24.5 0 49.1 0 73.6 0 6.2 0 12.3 0 18.5 0 15.2 4.9 29.8 15.8 40.7 11 11 25.6 15.8 40.9 15.8 6.1 0 12.2 0 18.2 0 24.5 0 49.1 0 73.6 0 57 0 114.1 0 171.1 0 16.9 0 34.9 1.8 50.7-5.4 19.1-8.7 30.5-28.7 30.7-49.3 0-4.7 0-9.4 0-14.1 0-53.8 0-107.6 0-161.4 0-38.9.7-77.8 0-116.7C442 580.7 418.3 557.1 388.5 556.5c-10.5-.2-20.5 9.4-20 20 .5 11 8.8 19.8 20 20 .5 0 .9 0 1.4 0 2.3.2 1.9.1-1.2-.3.2-.3 3.6.8 4 .9.4.1.9.3 1.3.4 2 .8 1.7.6-1.1-.5.2-.2 2.6 1.4 2.9 1.5.4.2 2.7 1.4 2.7 1.8-.7-.5-1.3-1-2-1.5.7.6 1.3 1.2 1.9 1.8.3.3.6.6.9.9 1.4 1.6 1.2 1.3-.6-1 .7 0 2.4 3.9 2.8 4.5 1.7 2.7-.8-1.2-.4-1.2.3 0 1.1 3.5 1.2 3.8.1.4.2.9.3 1.3.4 2.2.3 1.8-.1-1.3.1 0 .1 2.8.1 2.8 0 .2 0 .5 0 .7 0 4.5 0 9.1 0 13.6 0 22 0 43.9 0 65.9 0 57.4 0 114.7 0 172.1 0 13.4.2 26.7 0 40.1 0 .2 0 .4 0 .5 0 .5 0 .9 0 1.4-.2 2.3-.1 1.9.3-1.2.3.2-.8 3.6-.9 4-.1.5-1.8 4.4-.4 1.4 1.4-3.1-1.1 1.8-1.4 2.3-.2.4-.5.7-.7 1.1-1.2 1.7-1 1.4.7-.9.1.2-2.5 2.6-2.7 2.8-2.9 3.2 3.7-2.1 0 .1-.8.4-1.5.9-2.2 1.4-.4.2-.8.4-1.2.6-2 .9-1.6.8 1.2-.4 0 .3-3.5 1.1-3.8 1.2-.4.1-.9.2-1.3.3-2.2.4-1.8.3 1.3-.1-.4-.2-2.2.1-2.8.1-3.2.1-6.5 0-9.7 0-49.9 0-99.9 0-149.8 0-43.8 0-87.6 0-131.4 0-1.2 0-2.4 0-3.5 0-4.7.1 4.3 1.1-.1.1-.9-.2-1.8-.4-2.6-.6-.4-.1-.9-.3-1.3-.4-2-.8-1.7-.6 1.1.5-.2.2-3.2-1.7-3.5-1.9-.4-.2-.7-.5-1.1-.7-1.7-1.2-1.4-1 .9.7-.2.1-2.6-2.5-2.8-2.7-2.3-2.1 1.1 1 .6 1-.7 0-2.4-3.9-2.8-4.5-2.3-3.7 1 4.2 0-.1-.3-1.3-.7-2.6-1-3.9-.9-3.1.5 1.4.1 1.3-.1 0-.1-2.8-.1-2.8 0-.2 0-.5 0-.7 0-1.6 0-3.2 0-4.8 0-18.4 0-36.8 0-55.2 0-58 0-115.9 0-173.9 0-17.8 0-35.6 0-53.3 0-1.5 0-3 0-4.5 0-.6 0-1.3 0-1.8-.1-4.1 0 1.4-.3 1.2-.3-.2.8-3.6.9-4 .1-.4.3-.9.4-1.3.8-2 .6-1.7-.5 1.1-.3-.3 2.3-4.1 2.6-4.6 2-3.3-.6 1.1-.7.9-.1-.2 2.5-2.6 2.7-2.8 2.9-3.2-3.7 2.1 0-.1 1.1-.7 2.3-1.3 3.4-2 3.7-2.3-4.2 1 .1 0 .9-.2 1.7-.5 2.6-.7.4-.1.9-.2 1.3-.3 2.2-.4 1.8-.3-1.3.1 0-.1 2.8-.1 2.8-.1.9 0 1.8 0 2.7 0 44.6 0 89.2 0 133.8 0 49.3 0 98.6 0 147.9 0 2.9 0 5.7 0 8.6 0 10.5 0 20.5-9.2 20-20C408 565.7 399.7 556.5 388.5 556.5zM527.9 194.8c14.5 0 28.9 0 43.4 0 34.5 0 69.1 0 103.6 0 41.9 0 83.9 0 125.8 0 36.1 0 72.2 0 108.3 0 17.6 0 35.2.5 52.8 0 .3 0 .5 0 .8 0 10.5 0 20.5-9.2 20-20-.5-10.8-8.8-20-20-20-14.5 0-28.9 0-43.4 0-34.5 0-69.1 0-103.6 0-41.9 0-83.9 0-125.8 0-36.1 0-72.2 0-108.3 0-17.6 0-35.2-.5-52.8 0-.3 0-.5 0-.8 0-10.5 0-20.5 9.2-20 20C508.4 185.6 516.7 194.8 527.9 194.8L527.9 194.8zM805.5 339.2c-31.4 0-62.7 0-94.1 0-49.8 0-99.5 0-149.3 0-11.4 0-22.8 0-34.2 0-10.5 0-20.5 9.2-20 20 .5 10.8 8.8 20 20 20 31.4 0 62.7 0 94.1 0 49.8 0 99.5 0 149.3 0 11.4 0 22.8 0 34.2 0 10.5 0 20.5-9.2 20-20C825 348.4 816.7 339.2 805.5 339.2L805.5 339.2zM527.9 684.8c14.5 0 28.9 0 43.4 0 34.5 0 69.1 0 103.6 0 41.9 0 83.9 0 125.8 0 36.1 0 72.2 0 108.3 0 17.6 0 35.2.5 52.8 0 .3 0 .5 0 .8 0 10.5 0 20.5-9.2 20-20-.5-10.8-8.8-20-20-20-14.5 0-28.9 0-43.4 0-34.5 0-69.1 0-103.6 0-41.9 0-83.9 0-125.8 0-36.1 0-72.2 0-108.3 0-17.6 0-35.2-.5-52.8 0-.3 0-.5 0-.8 0-10.5 0-20.5 9.2-20 20C508.4 675.6 516.7 684.8 527.9 684.8L527.9 684.8zM805.5 829.2c-31.4 0-62.7 0-94.1 0-49.8 0-99.5 0-149.3 0-11.4 0-22.8 0-34.2 0-10.5 0-20.5 9.2-20 20 .5 10.8 8.8 20 20 20 31.4 0 62.7 0 94.1 0 49.8 0 99.5 0 149.3 0 11.4 0 22.8 0 34.2 0 10.5 0 20.5-9.2 20-20C825 838.4 816.7 829.2 805.5 829.2L805.5 829.2z"/></svg>