<svg xmlns="http://www.w3.org/2000/svg" enable-background="new 0 0 32 32" viewBox="0 0 32 32"><path d="M13.14258.5H2C1.17188.5.5 1.17139.5 2v11.14307c0 .82861.67188 1.5 1.5 1.5h11.14258c.82813 0 1.5-.67139 1.5-1.5V2C14.64258 1.17139 13.9707.5 13.14258.5zM11.64258 11.64307H3.5V3.5h8.14258V11.64307zM30 .5H18.85742c-.82813 0-1.5.67139-1.5 1.5v11.14307c0 .82861.67188 1.5 1.5 1.5H30c.82813 0 1.5-.67139 1.5-1.5V2C31.5 1.17139 30.82813.5 30 .5zM28.5 11.64307h-8.14258V3.5H28.5V11.64307zM13.14258 17.35693H2c-.82813 0-1.5.67139-1.5 1.5V30c0 .82861.67188 1.5 1.5 1.5h11.14258c.82813 0 1.5-.67139 1.5-1.5V18.85693C14.64258 18.02832 13.9707 17.35693 13.14258 17.35693zM11.64258 28.5H3.5v-8.14307h8.14258V28.5zM30 22.92871h-4.07129v-4.07178c0-.82861-.67188-1.5-1.5-1.5s-1.5.67139-1.5 1.5v4.07178h-4.07129c-.82813 0-1.5.67139-1.5 1.5s.67188 1.5 1.5 1.5h4.07129V30c0 .82861.67188 1.5 1.5 1.5s1.5-.67139 1.5-1.5v-4.07129H30c.82813 0 1.5-.67139 1.5-1.5S30.82813 22.92871 30 22.92871z"/></svg>