<svg xmlns="http://www.w3.org/2000/svg" enable-background="new 0 0 24 24" viewBox="0 0 24 24"><path d="M17 3h-1c-.6 0-1 .4-1 1s.4 1 1 1h1c1.1 0 2 .9 2 2v1.1c0 .6.4 1 1 1s1-.4 1-1V7C21 4.8 19.2 3 17 3zM20 15c-.6 0-1 .4-1 1v1c0 1.1-.9 2-2 2h-1c-.6 0-1 .4-1 1s.4 1 1 1h1c2.2 0 4-1.8 4-4v-1C21 15.4 20.6 15 20 15zM8 19H7c-1.1 0-2-.9-2-2v-1c0-.6-.4-1-1-1s-1 .4-1 1v1c0 2.2 1.8 4 4 4h1c.6 0 1-.4 1-1S8.6 19 8 19zM4 9c.6 0 1-.4 1-1V7c0-1.1.9-2 2-2h1c.6 0 1-.4 1-1S8.6 3 8 3H7C4.8 3 3 4.8 3 7v1C3 8.5 3.4 9 4 9z"/><path d="M12 8c0-1.1-.9-2-2-2H8C6.9 6 6 6.9 6 8v2c0 1.1.9 2 2 2h2c1.1 0 2-.9 2-2V8zM8 10V8h2l0 2H8zM18 16v-2c0-1.1-.9-2-2-2h-2c-1.1 0-2 .9-2 2v2c0 1.1.9 2 2 2h2C17.1 18 18 17.1 18 16zM14 14h2l0 2h-2V14zM14 11h1c.6 0 1-.4 1-1V8h1c.6 0 1-.4 1-1s-.4-1-1-1h-2c-.6 0-1 .4-1 1v2c-.6 0-1 .4-1 1S13.4 11 14 11zM10 13H7c-.6 0-1 .4-1 1s.4 1 1 1h2v2c0 .6.4 1 1 1s1-.4 1-1v-3C11 13.4 10.6 13 10 13z"/></svg>